<?xml version="1.0" standalone="no"?>
<!DOCTYPE svg PUBLIC "-//W3C//DTD SVG 20010904//EN"
 "http://www.w3.org/TR/2001/REC-SVG-20010904/DTD/svg10.dtd">
<svg version="1.0" xmlns="http://www.w3.org/2000/svg"
 width="500.000000pt" height="500.000000pt" viewBox="0 0 500.000000 500.000000"
 preserveAspectRatio="xMidYMid meet">
<metadata>
Created by potrace 1.11, written by Peter Selinger 2001-2013
</metadata>
<g transform="translate(0.000000,500.000000) scale(0.100000,-0.100000)"
fill="#000000" stroke="none">
<path d="M2310 4964 c-165 -20 -217 -27 -300 -44 -475 -96 -911 -330 -1255
-675 -382 -381 -616 -851 -702 -1405 -25 -160 -25 -520 0 -680 46 -299 125
-542 256 -797 238 -457 597 -816 1054 -1054 255 -131 498 -210 797 -256 160
-25 520 -25 680 0 299 46 542 125 797 256 457 238 816 597 1054 1054 131 255
210 498 256 797 13 85 18 174 18 340 0 341 -48 597 -166 902 -120 308 -314
603 -554 843 -379 379 -852 617 -1395 700 -100 15 -463 28 -540 19z m535 -158
c515 -82 951 -302 1315 -666 360 -359 577 -796 657 -1320 24 -160 24 -481 -1
-645 -37 -247 -130 -538 -238 -747 -52 -101 -179 -294 -255 -388 -64 -79 -238
-260 -251 -260 -10 0 -462 428 -667 631 -94 93 -173 169 -177 169 -4 0 -24
-25 -43 -56 -45 -70 -163 -188 -235 -235 -64 -42 -177 -90 -270 -115 -94 -25
-289 -23 -391 4 -106 29 -220 86 -306 154 -209 167 -357 478 -399 841 l-6 57
-139 0 -139 0 0 120 0 120 134 0 c113 0 135 2 140 16 16 42 12 43 -131 46
l-138 3 -3 118 -3 117 154 0 153 0 13 62 c7 34 28 104 47 157 l34 96 -260 260
c-142 142 -261 257 -264 254 -3 -3 2 -43 11 -89 10 -54 16 -146 16 -250 l1
-165 -41 -120 c-64 -184 -68 -221 -68 -560 1 -287 2 -306 28 -426 65 -306 194
-557 381 -744 242 -241 534 -359 921 -372 284 -10 511 31 714 127 l104 50 46
-42 c25 -23 135 -128 244 -232 241 -233 239 -229 120 -300 -149 -86 -387 -181
-579 -230 -797 -202 -1653 34 -2236 617 -276 277 -473 610 -584 991 -204 703
-64 1466 378 2054 84 111 306 344 324 340 17 -4 394 -358 656 -617 120 -118
219 -213 221 -210 1 2 16 24 32 49 105 166 257 281 455 346 77 25 99 28 235
28 173 1 233 -11 361 -74 237 -116 408 -340 498 -652 29 -100 56 -270 56 -352
l0 -56 -118 0 c-65 0 -121 -2 -123 -4 -2 -2 -2 -29 -1 -60 l4 -56 118 0 c66 0
120 -3 122 -7 2 -5 2 -45 0 -90 l-4 -83 -119 0 -119 0 0 -60 0 -60 104 0 c58
0 107 -4 110 -8 11 -18 -16 -152 -52 -257 l-37 -110 260 -256 c143 -142 262
-255 264 -253 2 2 -4 60 -14 130 -13 92 -16 162 -12 262 4 123 8 148 41 243
60 177 71 260 70 539 0 262 -9 341 -60 545 -98 389 -343 700 -683 870 -373
186 -923 191 -1297 11 l-115 -55 -248 239 c-221 214 -249 244 -253 276 -4 33
-1 38 36 62 70 44 261 130 380 171 182 63 365 102 581 125 86 9 444 -3 540
-18z"/>
</g>
</svg>
